<?xml version="1.0" encoding="UTF-8"?>
<svg id="Layer_1" data-name="Layer 1" xmlns="http://www.w3.org/2000/svg" viewBox="0 0 1792.72 574.62">
  <defs>
    <style>
      .cls-1 {
        fill: #ea7aff;
      }

      .cls-2 {
        fill: #18f4c3;
      }
    </style>
  </defs>
  <polygon class="cls-2" points="108.97 204.44 116.08 192.77 40.71 146.7 116.08 139.68 96.43 38.61 170.92 107.92 214.53 40.62 220.41 118.36 233.57 117.84 224.09 0 169.08 88.09 75.72 1.4 100.73 128.19 0 136.88 108.97 204.44"/>
  <path class="cls-2" d="m102.83,450.9s30.77-151.79,47.38-299.2h112.48l-17.37,102.83,58.44-.18s13.69-90.37,12.63-102.66h112.83s-45.74,253.04-46.21,299.2h-112.78s15.62-81.77,18.43-105.11h-59.1s-12.67,77.04-13.02,105.11h-113.71Z"/>
  <path class="cls-2" d="m470.82,151.7h112.31s-46.85,272.35-46.15,299.2h-112.66s28.55-141.5,46.5-299.2Z"/>
  <path class="cls-2" d="m620.15,151.7l237.6-.26-13.57,88.24s-39.31-3.28-64.11-2.11c0,0-32.99,205.08-31.12,213.33h-112.78s34.16-179.17,36.27-213.91c0,0-47.26.12-66.92,2.92l14.62-88.21Z"/>
  <path class="cls-1" d="m808.85,275.71l202.86.12-15.15,87.95s-28.25-4.3-91.25-2.37l-7.72,50.19s61.42.18,71.95-3.33l-12.46,78.44s3.69-2.98-70.72-3.69c0,0-10.53,63.35-11.93,91.6h-112.13s40.48-218.88,46.56-298.9Z"/>
  <path class="cls-1" d="m1269.3,574.61c-37.88-280.2-34.42-298.9-34.42-298.9h-148.84c-13.86,51.96-128.72,298.9-128.72,298.9h123.44c.11-13.31,7.81-40.58,7.81-40.58h56.74c1.04,16.39-3.63,40.58-3.63,40.58h127.62Zm-158.24-105.08l30.08-81.82,2.86,81.82h-32.94Z"/>
  <path class="cls-1" d="m1351.33,275.71h112.07s-24.1,130.09-31.47,190.11l115.12-95.05-17.55,109.09-115.47,94.75h-109.5s43.4-224.73,46.8-298.9Z"/>
  <path class="cls-1" d="m1596.77,275.71s-6.2,99.19-44.81,298.9h107.63l115.35-94.16,17.78-110.44-115.12,95.7,21.06-135.94-46.8,25.5,27.14-74.4-3.04-5.15h-79.2Z"/>
  <path class="cls-1" d="m1744.97,275.71l17.76-51.91-47.95,26.17-51.91-18.25,27.16,48.06-18.91,52.13,48.44-26.83,51.41,17.37-26.01-46.74Zm-26.28,15.67l-22.98,12.1,7.97-24.74-12.48-23.15,24.47,8.25,23.86-12.26-8.41,24.14,12.32,23.75-24.74-8.08Z"/>
</svg>