<?xml version="1.0" encoding="UTF-8"?>
<svg id="Layer_1" data-name="Layer 1" xmlns="http://www.w3.org/2000/svg" viewBox="0 0 326 105.13">
  <defs>
    <style>
      .cls-1 {
        fill: #1fc5db;
      }

      .cls-1, .cls-2 {
        stroke-width: 0px;
      }

      .cls-2 {
        fill: #e6aa4a;
      }
    </style>
  </defs>
  <g>
    <path class="cls-2" d="M25.63,35.97c.21-1.31.39-2.62.55-3.94.16-1.31.26-2.91.31-4.8h21.02c-.47,1.89-.84,3.48-1.1,4.76-.26,1.29-.5,2.61-.71,3.98l-1.65,10.55h10.94l1.65-10.55c.21-1.31.39-2.62.55-3.94.16-1.31.26-2.91.31-4.8h21.02c-.47,1.89-.84,3.48-1.1,4.76-.26,1.29-.5,2.61-.71,3.98l-6.14,38.42c-.21,1.31-.38,2.62-.51,3.94-.13,1.31-.25,2.91-.35,4.8h-21.02c.47-1.89.84-3.49,1.1-4.8.26-1.31.5-2.62.71-3.94l1.73-10.94h-10.94l-1.73,10.94c-.21,1.31-.38,2.62-.51,3.94-.13,1.31-.25,2.91-.35,4.8h-21.02c.47-1.89.84-3.49,1.1-4.8.26-1.31.5-2.62.71-3.94l6.14-38.42Z"/>
    <path class="cls-2" d="M83.96,35.97c.21-1.31.39-2.62.55-3.94.16-1.31.26-2.91.31-4.8h21.02c-.47,1.89-.84,3.48-1.1,4.76-.26,1.29-.5,2.61-.71,3.98l-6.14,38.42c-.21,1.31-.38,2.62-.51,3.94-.13,1.31-.25,2.91-.35,4.8h-21.02c.47-1.89.84-3.49,1.1-4.8.26-1.31.5-2.62.71-3.94l6.14-38.42Z"/>
    <path class="cls-2" d="M120.96,43.29h-3.38c-1.47,0-2.99.04-4.57.12-1.57.08-3.15.22-4.72.43l2.91-16.61h44.32l-2.68,16.61c-1.47-.21-2.95-.35-4.45-.43-1.5-.08-3-.12-4.53-.12h-2.83l-5.04,31.1c-.21,1.31-.39,2.62-.55,3.94-.16,1.31-.26,2.91-.31,4.8h-21.02c.47-1.89.84-3.49,1.1-4.8.26-1.31.5-2.62.71-3.94l5.04-31.1Z"/>
  </g>
  <g>
    <path class="cls-1" d="M145.94,57.97c.21-1.31.39-2.62.55-3.94.16-1.31.26-2.91.31-4.8h37.71l-2.68,16.61c-1.47-.26-2.97-.42-4.49-.47-1.52-.05-3.04-.08-4.57-.08h-7.95l-1.5,9.21h5.83c1.36,0,2.62-.04,3.78-.12,1.15-.08,2.47-.22,3.94-.43l-2.52,14.64c-1.31-.21-2.55-.35-3.7-.43-1.16-.08-2.41-.12-3.78-.12h-5.67l-1.34,8.34c-.21,1.31-.39,2.62-.55,3.94-.16,1.31-.26,2.91-.31,4.8h-21.02c.47-1.89.84-3.49,1.1-4.8.26-1.31.5-2.62.71-3.94l6.14-38.42Z"/>
    <path class="cls-1" d="M194.04,57.97c.73-1.63,1.34-3.12,1.81-4.49.47-1.36.87-2.78,1.18-4.25h27.79c-.05,1.47-.03,2.93.08,4.37.1,1.44.26,2.9.47,4.37l5.83,47.15h-23.85c.05-.26.09-.5.12-.71.03-.21.07-.42.12-.63.16-1.05.29-2.03.39-2.95.1-.92.13-2.01.08-3.27h-10.55c-.74,2.31-1.23,4.83-1.5,7.56h-22.99l21.02-47.15ZM207.74,85.44l-.47-15.35-5.43,15.35h5.9Z"/>
  </g>
  <path class="cls-1" d="M260.26,84.59l20.89-17.32-3.11,20.04-21.06,17.32h-19.91s6.26-30.81,8.64-54.55h20.4l-5.85,34.51Z"/>
  <path class="cls-1" d="M317.23,50.07l3.28-9.43-8.81,4.83-9.34-3.36,4.79,8.79-3.32,9.55,8.87-4.94,9.38,3.23-4.85-8.68ZM312.49,52.97l-4.34,2.36,1.64-4.6-2.47-4.45,4.66,1.74,4.43-2.4-1.68,4.53,2.28,4.4-4.51-1.6Z"/>
  <path class="cls-1" d="M305.11,84.59l4.2-24.74-9.16,4.85,5.04-13.48-.63-1.13h-14.01c-2.38,23.74-8.64,54.55-8.64,54.55h19.91l21.06-17.32,3.11-20.04-20.89,17.32Z"/>
  <polygon class="cls-2" points="19.66 37.15 0 24.93 18.06 23.36 13.72 .45 30.54 15.89 40.63 0 42.32 21.35 39.93 21.41 38.87 7.4 31.12 19.76 17.39 7.15 21 25.37 6.8 26.55 20.84 35.14 19.66 37.15"/>
</svg>